<!DOCTYPE svg PUBLIC "-//W3C//DTD SVG 1.1//EN" "http://www.w3.org/Graphics/SVG/1.1/DTD/svg11.dtd">
<!-- Uploaded to: SVG Repo, www.svgrepo.com, Transformed by: SVG Repo Mixer Tools -->
<svg width="800px" height="800px" viewBox="0 0 48 48" xmlns="http://www.w3.org/2000/svg" fill="#ffffff">
<g id="SVGRepo_bgCarrier" stroke-width="0"/>
<g id="SVGRepo_tracerCarrier" stroke-linecap="round" stroke-linejoin="round"/>
<g id="SVGRepo_iconCarrier">
<defs>
<style>.a{fill:none;stroke:#ffffff;stroke-linecap:round;stroke-linejoin:round;}</style>
</defs>
<path class="a" d="M33.9978,4.6277a9.3577,9.3577,0,0,1,8.4671,10.1705c-.47,5.1467-4.8547,8.1237-10.17,8.4672,0,0-2.98.4263-8.6675-1.476a20.1536,20.1536,0,0,0-11.018-.3107s4.5439-18.6935,21.39-16.8509"/>
<path class="a" d="M14.0022,43.3723A9.3577,9.3577,0,0,1,5.5351,33.2018c.47-5.1465,4.8547-8.1237,10.1705-8.4672,0,0,2.98-.4263,8.6675,1.476a20.1536,20.1536,0,0,0,11.018.3107s-4.5439,18.6935-21.39,16.8509"/>
</g>
</svg>